<svg preserveAspectRatio="xMinYMin slice" id="Ebene_1" xmlns="http://www.w3.org/2000/svg" version="1.1" y="0px" x="0px" xmlns:xlink="http://www.w3.org/1999/xlink" viewBox="0 0 200 67">
    <style>
        @media (max-width: 54px) {
            #text {
                display: none;
            }
        }
    </style>
    <g id="text" fill="#168390">
        <path d="m94.813 21.117h-3.185v-0.626c0-0.724-0.217-2.46-2.315-2.46-1.422 0-2.411 1.061-2.411 2.46v7.26h-3.185v-12.421h3.041v1.206c0.796-0.94 1.88-1.52 3.207-1.52 2.919 0 4.85 2.194 4.85 5.475v0.626z"/>
        <path d="m99.635 22.783c0.411 1.519 1.618 2.459 3.111 2.459 1.063 0 2.1-0.458 2.63-1.447h3.401c-0.725 2.532-2.919 4.245-6.005 4.245-3.497 0-6.368-2.894-6.368-6.488 0-3.593 2.871-6.535 6.368-6.535 3.666 0 6.704 2.846 6.245 7.767h-9.385zm6.225-2.606c-0.386-1.447-1.593-2.363-3.112-2.363-1.445 0-2.603 0.916-3.062 2.363h6.172z"/>
        <path d="m116.45 28.04c-3.16 0-5.499-1.664-5.885-4.341h3.231c0.435 1.063 1.712 1.447 2.653 1.447 1.278 0 2.241-0.385 2.241-1.11 0-0.699-0.433-0.988-2.603-1.326-2.221-0.338-5.186-0.94-5.186-3.714 0-1.954 1.712-3.979 5.306-3.979 2.847 0 4.969 1.543 5.378 3.882h-3.305c-0.192-0.578-0.892-1.037-2.073-1.037-1.471 0-2.074 0.53-2.074 0.989 0 0.651 0.915 0.868 2.459 1.109 3.087 0.507 5.307 1.183 5.307 3.883-0.01 2.46-2.28 4.197-5.46 4.197z"/>
        <path d="m135.02 22.565c0 3.135-2.124 5.475-5.452 5.475s-5.474-2.339-5.474-5.475v-10.396h3.185v3.161h7.62v2.99h-7.62v4.413c0 1.135 0.697 2.292 2.289 2.292 1.567 0 2.268-1.157 2.268-2.292v-1.182h3.185v1.014z"/>
        <path d="m144.4 28.015c-1.422 0-2.701-0.554-3.641-1.47v6.729h-3.209v-17.944h3.063v1.302c0.965-0.988 2.293-1.592 3.787-1.592 3.257 0 5.909 2.798 5.909 6.464 0 3.691-2.65 6.511-5.91 6.511zm-0.46-10.008c-1.762 0-3.184 1.566-3.184 3.497 0 1.954 1.422 3.545 3.184 3.545 1.759 0 3.183-1.52 3.183-3.545 0-2.002-1.42-3.497-3.18-3.497z"/>
        <path d="m155.9 27.751h-3.182v-17.945h3.182v17.945z"/>
        <path d="m171.05 27.751h-3.038v-1.328c-0.965 1.015-2.291 1.592-3.811 1.592-3.232 0-5.909-2.797-5.909-6.464 0-3.689 2.677-6.487 5.909-6.487 1.52 0 2.846 0.58 3.811 1.592v-1.326h3.038v12.421zm-6.37-9.744c-1.762 0-3.186 1.543-3.186 3.569 0 1.977 1.424 3.497 3.186 3.497 1.759 0 3.183-1.567 3.183-3.497 0.01-1.977-1.42-3.569-3.18-3.569z"/>
        <path d="m184.92 22.565c0 3.135-2.121 5.475-5.448 5.475-3.328 0-5.476-2.339-5.476-5.475v-10.396h3.184v3.161h7.622v2.99h-7.622v4.413c0 1.135 0.699 2.292 2.292 2.292 1.566 0 2.268-1.157 2.268-2.292v-1.182h3.181v1.014z"/>
        <path d="m197.36 27.751h-10.854v-2.75l6.56-6.801h-6.294v-2.87h10.371v2.846l-6.441 6.705h6.658v2.87z"/>
        <path d="m90.568 52.137c-1.496 0-2.822-0.579-3.787-1.595v1.327h-3.064v-17.943h3.209v6.703c0.941-0.915 2.218-1.445 3.642-1.445 3.255 0 5.908 2.798 5.908 6.487 0 3.665-2.653 6.466-5.908 6.466zm-0.459-10.011c-1.761 0-3.183 1.593-3.183 3.566 0 1.932 1.422 3.501 3.183 3.501 1.762 0 3.185-1.522 3.185-3.501 0-2.024-1.423-3.566-3.185-3.566z"/>
        <path d="m110.44 45.671c0 3.714-2.822 6.488-6.271 6.488-3.45 0-6.248-2.774-6.248-6.488s2.798-6.535 6.248-6.535c3.45 0 6.27 2.821 6.27 6.535zm-3.21 0.021c0-2.146-1.374-3.639-3.062-3.639s-3.064 1.493-3.064 3.639c0 2.101 1.376 3.549 3.064 3.549 1.69 0 3.06-1.448 3.06-3.549z"/>
        <path d="m115.12 46.899c0.409 1.52 1.616 2.459 3.112 2.459 1.061 0 2.097-0.455 2.629-1.445h3.4c-0.726 2.532-2.918 4.246-6.006 4.246-3.497 0-6.368-2.896-6.368-6.488 0-3.594 2.871-6.535 6.368-6.535 3.666 0 6.704 2.846 6.245 7.764h-9.38zm6.22-2.604c-0.385-1.446-1.592-2.363-3.111-2.363-1.447 0-2.605 0.917-3.064 2.363h6.17z"/>
        <path d="m137.82 45.236h-3.186v-0.626c0-0.723-0.217-2.462-2.315-2.462-1.422 0-2.411 1.063-2.411 2.462v7.259h-3.183v-12.422h3.039v1.208c0.795-0.941 1.88-1.52 3.208-1.52 2.917 0 4.848 2.193 4.848 5.475v0.626z"/>
        <path d="m145 52.159c-3.16 0-5.498-1.665-5.885-4.342h3.233c0.434 1.061 1.71 1.446 2.651 1.446 1.279 0 2.243-0.386 2.243-1.108 0-0.7-0.434-0.99-2.605-1.326-2.217-0.34-5.185-0.941-5.185-3.715 0-1.952 1.712-3.979 5.307-3.979 2.845 0 4.969 1.543 5.377 3.882h-3.304c-0.192-0.579-0.892-1.036-2.073-1.036-1.473 0-2.075 0.53-2.075 0.989 0 0.648 0.917 0.866 2.46 1.107 3.088 0.507 5.307 1.182 5.307 3.882-0.02 2.464-2.28 4.2-5.47 4.2z"/>
        <path d="m155.16 46.899c0.409 1.52 1.614 2.459 3.11 2.459 1.062 0 2.099-0.455 2.629-1.445h3.401c-0.726 2.532-2.919 4.246-6.007 4.246-3.497 0-6.367-2.896-6.367-6.488 0-3.594 2.87-6.535 6.367-6.535 3.666 0 6.706 2.846 6.247 7.764h-9.38zm6.22-2.604c-0.385-1.446-1.594-2.363-3.111-2.363-1.448 0-2.605 0.917-3.063 2.363h6.17z"/>
        <path d="m169.6 51.869h-3.426v-3.399h3.426v3.399z"/>
        <path d="m183.95 51.869h-3.04v-1.327c-0.965 1.016-2.29 1.595-3.81 1.595-3.231 0-5.909-2.801-5.909-6.466 0-3.689 2.678-6.487 5.909-6.487 1.52 0 2.845 0.577 3.81 1.591v-1.327h3.04v12.421zm-6.36-9.743c-1.76 0-3.182 1.542-3.182 3.566 0 1.979 1.422 3.501 3.182 3.501 1.761 0 3.186-1.569 3.186-3.501-0.01-1.973-1.43-3.566-3.19-3.566z"/>
        <path d="m197.65 46.684c0 3.134-2.122 5.476-5.453 5.476-3.326 0-5.473-2.342-5.473-5.476v-10.396h3.183v3.159h7.622v2.991h-7.622v4.414c0 1.134 0.699 2.29 2.29 2.29 1.568 0 2.268-1.156 2.268-2.29v-1.182h3.186v1.014z"/>
    </g>
    <path d="m18.166 36.572c-2.764-0.359-5.593-0.726-8.12-1.054 0.101 1.345 0.28 2.667 0.548 3.958 0.829-0.298 1.79-0.548 2.748-0.594 1.059-0.052 3.306 0.396 5.551 0.929-0.318-1.049-0.562-2.129-0.727-3.239zm52.15-12.07c-1.594 1.334-3.464 2.818-5.655 4.477-0.119 0.09-0.271 0.195-0.4 0.288 2.003 1.035 4.941 2.555 7.302 3.776-0.014-2.965-0.451-5.829-1.247-8.541zm-29.557-14.153c6.016 0 11.485 2.329 15.564 6.129 1.105-0.778 1.832-1.29 1.832-1.29 1.835-1.282 3.542-2.266 5.115-3.02-5.623-6.018-13.625-9.784-22.51-9.784-14.495 0-26.646 10.014-29.929 23.5 1.121-0.056 4.356-0.216 8.429-0.419 3.166-8.812 11.595-15.116 21.499-15.116zm28.214 31.186s-2.976-0.21-6.759-0.479c-3.205 8.744-11.602 14.982-21.455 14.982-4.256 0-8.239-1.167-11.65-3.196-0.538 0-0.982-0.026-1.144-0.041 0 0-4.037-0.297-5.017-0.371-0.469 0.246-1.074 0.569-1.074 0.569-0.633 0.345-2.271 1.236-3.862 0.969 5.634 6.165 13.738 10.032 22.747 10.032 14.129 0 26.027-9.512 29.66-22.481-0.518 0.039-1.017 0.047-1.446 0.016z" fill="#C8D400"/>
    <path d="m74.451 36.961l-14.354-7.423c1.24-0.815 2.343-1.579 3.266-2.277 9.522-7.21 17.425-14.56 11.37-14.884 0 0-5.687-2.172-15.345 4.576-3.478 2.43-8.386 5.894-13.245 9.334l-35.634 1.769c-1.002 0.049-2.572 0.425-3.489 0.832l-5.409 2.405c-0.917 0.407-0.853 0.847 0.142 0.976l30.399 3.948c-1.94 1.38-3.131 2.228-3.131 2.228s-4.207 3.835-5.13 4.899-8.505-2.403-10.447-2.312c-1.941 0.093-4.114 1.387-4.114 1.387l4.346 3.42 1.569 1.424-3.262 0.1c-1.003 0.028-2.411 0.312-3.128 0.627s-0.489 0.675 0.506 0.796l8.101 0.991c0.035 0.003 0.075 0.003 0.111 0.008-0.175 0.921-0.331 3.295 3.267 1.324 0.377-0.206 0.939-0.503 1.648-0.873l5.635 0.418c1.001 0.072 2.125 0.022 2.497-0.117 0.373-0.136-0.069-0.591-0.98-1.01l-3.03-1.391c-0.013-0.008-0.027-0.011-0.04-0.014 5.071-2.624 12.494-6.473 19.565-10.37l22.991 1.635c1 0.071 2.599-0.131 3.549-0.45l1.666-0.56c0.952-0.318 1.002-0.955 0.11-1.416z" fill="#168390"/>
</svg>